 http://desibbrg.org/images/66952052392581364616.gif 
http://desibbrg.org/images/93439239511057607478.jpg

Media Info - 
Video
ID : 224 (0xE0)
Format : MPEG Video
Format version : Version 2
Format profile : Main@Main
Format settings, BVOP : Yes
Format settings, Matrix : Default
Duration : 2h 0mn
Bit rate mode : Variable
Bit rate : 683 Kbps
Maximum bit rate : 9 672 Kbps
Width : 352 pixels
Height : 288 pixels
Display aspect ratio : 4:3
Frame rate : 25.000 fps
Standard : PAL
Color space : YUV
Chroma subsampling : 4:2:0
Bit depth : 8 bits
Scan type : Progressive
Compression mode : Lossy
Bits/(Pixel*Frame) : 0.270
Stream size : 587 MiB (83%)

Audio
ID : 192 (0xC0)
Format : MPEG Audio
Format version : Version 1
Format profile : Layer 2
Duration : 2h 0mn
Bit rate mode : Constant
Bit rate : 128 Kbps
Channel(s) : 2 channels
Sampling rate : 48.0 KHz
Compression mode : Lossy
Stream size : 110 MiB (15%)

Ripper : Master Mind

Seeding 24x7... Extreme Seeding...


Enjoy!
